<?xml version="1.0" encoding="utf-8"?>
<!-- Generator: Adobe Illustrator 26.0.3, SVG Export Plug-In . SVG Version: 6.00 Build 0)  -->
<svg version="1.1" id="Layer_1" xmlns="http://www.w3.org/2000/svg" xmlns:xlink="http://www.w3.org/1999/xlink" x="0px" y="0px"
	 viewBox="0 0 576 515" style="enable-background:new 0 0 576 515;" xml:space="preserve">
<style type="text/css">
	.st0{fill:#EF4047;}
	.st1{fill:#F79332;}
	.st2{fill:#FDDC2D;}
	.st3{fill:#DE59A0;}
	.st4{fill:#3FB7E5;}
	.st5{fill:#7AC255;}
	.st6{fill:#84C556;}
	.st7{fill:#FFFFFF;}
	.st8{fill:#1BA7E0;}
</style>
<g>
	<path d="M133.7,264.3l-34.5,15.5c0,0-7.1,16.6-9.5,21.4c-2.4,4.8-3.5,16.7-4.8,22.6c-1.1,6,2.4,9.5,0,14.3
		c-2.3,4.7-11.9-5.2-4.7,17c7.1,22.1,3.6,31.7,16.6,38.8c13.1,7.2,26,8.3,36.9,8.3c10.7,0,32.2-5.9,35.7-8.3
		c3.5-2.4,16.6-15.5,16.6-25c0-9.5-9.5,2,0-13.9c9.6-15.9,15.4-24.2,20.3-30.2c4.9-6.1,19-13.1,19-13.1s6.2,1.2,8.4,5.9
		c2.2,4.8,6.5,41.1,8.5,48.2c2.1,7.1,2.6-34.6,1.6-24.9c-1,9.7,13.6,39.7,13.6,39.7s9.6-0.6,11.3,7.4c1.7,8.1,0.3,15.2,6.9,14
		c6.6-1.1,25.6,11,32.8,0.2c7.2-10.8,18.6-10.3,26-14.1c7.3-3.8,9.4,0.3,17.3,0c7.8-0.3,20.1,2.4,26.1,0c5.9-2.4,19.3,0.1,21.2-9.8
		c2-9.9,6.2-7.5,11.3-23.4c5.2-15.9-1.1-13.6,17.5-26.6c18.6-13.1,15.9,1.2,20.3-16.7c4.3-17.8-1.2-18.6,1.8-25.9
		c3-7.3,4.6-14.5-1.8-17.5c-6.4-3,8.5-3-9.7-4.2c-18.2-1.2-13.9,2.4-23.8,0c-9.9-2.4,6.5-13.4-26-10.8c-32.6,2.5-7.4,1.8-43.3,0
		c-36-1.9-38.4,4.8-50.2-1.3c-11.8-6.1-11.6,4.1-26.5-5.5c-15-9.6-11.9-16-28.8-16.4c-17-0.5,6.8,0.4-22.4,0
		c-29.2-0.5-26.7-3.2-39.8-0.2c-13.1,3.1-6-2.5-18,3.9c-11.9,6.4-26.1,6.4-26.1,6.4"/>
	<path class="st0" d="M205.1,247.2c-14.9,0-20.6-1.3-23.6-3.5c-2.2-1.3-3.4-3.9-4-7.1c-12.8,3.5-26.4,5.2-40.7,5.2
		c-4.7,0-12.6-0.3-23.1-1.1c-0.7,1.1-1.4,1.9-2.2,2.4c-3.1,3.2-9.9,4.1-26.1,4.1c-15.1,0-17.7-0.7-19.5-1.6l-3-1.6l-0.4-3.2
		c-0.2-1.5-0.3-3.6-0.3-6.2c0-11.9,3.3-23.6,9.9-34.9c6.3-10.9,14.7-20.8,24.8-29.7c9.7-8.5,19.8-16.7,29.8-24.2
		c9.9-7.4,19.9-15,29.7-22.8c4.3-3.3,7.9-6.5,11-9.5c-3.6,0.1-7.6,0.3-12,0.4c-7.1,0.2-12.8,0.4-17.2,0.4c-8.8,0-13.5,0.2-16.1,0.4
		c-1.5,5-2.1,6.1-2.7,7l-1.5,2.3l-2.7,0.5c-7,1.3-13.3,1.9-18.4,1.9c-5.7,0-11.4-0.8-16.9-2.2l-2.6-0.8L76,121
		c-3.2-6.5-4.8-16.4-4.8-30.1c0-10.4,1.7-17.9,5.3-22.9l1.4-1.9l2.4-0.6c3.9-0.9,10.8-1.4,21.1-1.4c17.4,0,22.3,1.5,25.1,4l1.4,1.3
		l0.4,1.6c13.3-0.5,24.3-0.7,33.1-0.7c8.3,0,15.5,0.1,21.1,0.4c0.5-0.9,1.1-1.9,1.9-2.6c2.6-3.3,8.4-4.4,27.1-4.4
		c16.5,0,18.1,0.7,20.1,2.3l2.4,1.9l-0.1,3.1c-0.6,14.9-4.9,29.5-12.8,43.3c-7.9,13.5-17.2,25.2-27.9,34.7
		c-10.4,9.2-20.9,17.8-31.2,25.4c-10,7.4-18.7,14-25.6,19.6c-1.9,1.4-3.3,2.7-4.4,3.8c3.1,0.2,6.5,0.4,10.4,0.4
		c17.2,0,30.5-1.2,39.4-3.8c0.5-4.6,1.7-9.5,5.5-12l0.6-0.5l0.7-0.2c4.4-1.8,11-2.6,20.9-2.6c8.9,0,14.4,1,17.9,3
		c3.6,2,5.7,6.2,7.2,14.1c1.2,6.1,1.8,12.9,1.8,20.1c0,13.8-1.4,28-11.3,29.4C220.2,246.8,213.7,247.2,205.1,247.2z"/>
	<path d="M211.4,69.9c10,0,15.4,0.3,16.2,0.9c-0.4,14-4.5,27.5-12,40.5c-7.5,13-16.4,24.1-26.7,33.3c-10.3,9.1-20.5,17.5-30.7,25
		c-10.2,7.6-18.8,14.1-25.8,19.8c-7.1,5.6-10.7,10-10.7,13.2c5.4,1.4,12.2,2.1,20.5,2.1c20.6,0,35.9-1.8,45.4-5.4
		c0-6.3,1-10.1,3.1-11.5c3.6-1.4,9.8-2.1,18.6-2.1c7.5,0,12.4,0.7,14.8,2.1c1.6,0.9,3.1,4.3,4.2,10c1.1,5.7,1.6,12.1,1.6,18.9
		c0,15.1-2,22.8-6.1,23.2c-4.2,0.8-10.5,1.2-18.7,1.2c-11.8,0-18.6-0.9-20.3-2.6c-0.8-0.2-1.5-3.5-2.1-9.9c-14.3,4.7-29.6,7-45.9,7
		c-5.3,0-14.5-0.5-27.7-1.3c-0.2,2.5-0.8,3.9-1.9,4.2c-0.6,1.7-8,2.6-21.8,2.6c-9.9,0-15.5-0.3-16.8-0.9c-0.2-1.2-0.2-3.1-0.2-5.4
		c0-10.8,3-21.4,9-31.8c6-10.3,13.9-19.8,23.5-28.2c9.7-8.5,19.5-16.4,29.6-23.8c10-7.4,20-15.1,29.8-22.9
		c9.9-7.8,17.1-15,21.6-21.4c-0.3,0.2-3,0.3-8.2,0.6c-5.2,0.2-11.3,0.5-18.4,0.7c-7.1,0.2-12.9,0.3-17.1,0.3
		c-12.4,0-19.3,0.4-20.9,1.1c-1.6,5.3-2.6,8.4-3.1,9.1c-6.8,1.1-12.6,1.8-17.4,1.8c-5.2,0-10.3-0.7-15.3-2
		c-2.9-5.6-4.3-14.7-4.3-27.3c0-8.9,1.4-15.4,4.3-19.3c3.4-0.8,10-1.2,19.7-1.2c12.3,0,19.2,0.8,21,2.3c0.3,1.2,0.5,2.1,0.5,2.5
		c0,0.2-0.1,0.9-0.5,2.2c15.9-0.7,29-0.9,39-0.9c11,0,19.5,0.2,25.6,0.7c0.5-2.8,1.2-4.5,2.1-5C189.6,70.7,197.1,69.9,211.4,69.9
		 M211.4,57.5c-16.1,0-26.5,0.3-31.6,6.4c-0.2,0.2-0.3,0.4-0.4,0.5c-5-0.2-11-0.3-18-0.3c-8,0-17.8,0.2-29.4,0.6l-1.3-1.1
		c-4.6-4.2-11.8-5.5-29.3-5.5c-14.3,0-19.7,0.9-22.5,1.5l-4.6,1.1l-2.8,3.8C67.1,70.5,65,79.2,65,90.9c0,14.7,1.8,25.4,5.6,32.9
		l2.4,5l5.4,1.4c6,1.6,12.2,2.4,18.5,2.4c5.6,0,12-0.6,19.5-1.9l5.3-0.9l3-4.6c0.6-1,1.2-2.1,2-4.4c2.6,0,6.3-0.1,11.5-0.1
		c3.2,0,7.1-0.1,11.7-0.2c-8.9,6.9-17.9,13.9-26.8,20.5c-10.2,7.6-20.4,15.9-30.3,24.6c-10.5,9.3-19.3,19.8-26.1,31.3
		c-7.1,12.2-10.7,25-10.7,38c0,2.9,0.1,5.1,0.3,7l0.8,6.6l6,2.9c3.1,1.6,7,2.3,22.3,2.3c14.8,0,25.1-0.3,30.5-5.9
		c0.2-0.1,0.3-0.3,0.5-0.4c9.2,0.6,16,0.9,20.4,0.9c12.7,0,25-1.4,36.7-4.1c1.1,2.3,2.8,4.1,5.1,5.4c4.8,3,12.2,4.1,26.4,4.1
		c8.9,0,15.6-0.5,20.7-1.3c16.5-2.4,16.5-25.5,16.5-35.5c0-7.7-0.5-14.8-1.9-21.3c-1.3-7-3.6-14.6-10.2-18.4
		c-4.6-2.7-10.9-3.8-21-3.8c-10.6,0-17.9,1-23.2,3l-1.3,0.6l-1.1,0.8c-4.4,3-6.5,7.5-7.6,12.1c-5.9,1.2-14.5,2.2-27.3,2.5
		c5-3.8,10.6-8.1,16.8-12.6c10.5-7.8,21.1-16.4,31.6-25.8c11.2-10,21.1-22.2,29.2-36.3c8.5-14.7,13.1-30.3,13.6-46.2l0.3-6.2
		l-4.9-3.9C231.6,58,227.7,57.5,211.4,57.5L211.4,57.5z"/>
	<g>
		<path class="st1" d="M300.3,288.4c-16.4,0-30.7-5.4-42.4-16c-11.9-10.7-17.9-24.9-17.9-42.2c0-19.1,6.9-36.7,20.7-52.4
			c13.9-16,30-24.1,47.6-24.1c11.1,0,20.9,3.4,28.9,10.2c8.4,7.1,12.5,16.4,12.5,27.7c0,13-5.4,24.2-15.9,33.3
			c-0.5,0.4-1,0.8-1.4,1.2c4.3-1.6,8.7-2.4,13.2-2.4c2,0,3.5,0.2,4.7,0.4l0.9,0.2l0.9,0.4c12,6.6,19.5,17.3,22.1,32l0.2,1l-0.1,1
			c-0.4,2.3-1.3,4.6-2.9,6.9c-1.3,1.7-2.6,3.2-4,4.5c-1.4,1.2-3.1,2.6-5.5,4.2c-2.2,1.4-3.9,2.5-5.3,3.2c-1.2,0.6-2.9,1.5-5.1,2.8
			c-2.5,1.3-3.8,2.1-4.1,2.3l-1.2,0.6h-1.5c-1.8,0-3.3-0.2-4.6-0.7c-1.4-0.5-2.8-1.4-3.9-2.6c-0.3-0.2-0.5-0.4-0.7-0.7
			C324.5,285.3,312.7,288.4,300.3,288.4z M284.4,237.7c0.9,1.3,1.9,2.6,3.2,3.7c4,3.5,8.5,5.2,13.8,5.2c6.1,0,11.2-2.2,15.3-6.7
			c0.1-1.1,0.5-2.2,0.8-3.4l0.6-1.7l1.2-1c-7.4,3-16,4.5-25.7,4.5C290.2,238.3,287.1,238.1,284.4,237.7z M289.3,203.2
			c0.1,0,1.1,0.9,5,0.9c4.6,0,9-1.1,13.3-3.3c2-1,4.4-2.6,4.4-4.3c0-1.4-0.6-3.1-1.7-5c-0.4-0.5-0.9-1.4-3.3-1.4
			c-3.5,0-7.5,1.6-12,4.7c-3.7,2.6-5.7,5.2-5.7,7.8C289.2,202.9,289.2,203.2,289.3,203.2L289.3,203.2z"/>
		<path d="M308.3,159.9c9.7,0,18,3,24.9,8.8c6.9,5.9,10.3,13.5,10.3,22.9c0,11.1-4.6,20.7-13.7,28.6c-9.1,8-21.2,11.9-36.3,11.9
			c-8.6,0-14.6-1.3-17.9-4c0.1,7.5,2.8,13.5,7.9,17.9c5.1,4.5,11,6.8,17.8,6.8c8.7,0,15.8-3.4,21.3-10.4c0-1.3,0.3-2.6,0.7-3.9
			c6.9-5.7,14.4-8.5,22.4-8.5c1.5,0,2.7,0.1,3.5,0.3c10.4,5.6,16.7,14.9,19.1,27.7c-0.2,1.2-0.7,2.6-1.8,4c-1,1.4-2.1,2.6-3.1,3.7
			c-1.1,1-2.8,2.1-4.8,3.5c-1.9,1.3-3.6,2.3-4.8,2.9c-1.1,0.7-2.8,1.6-5,2.8c-2.3,1.3-3.6,2-3.9,2.1c-0.9,0-1.8-0.1-2.4-0.4
			c-0.6-0.2-1.2-0.6-1.8-1.2c-0.5-0.5-0.9-0.9-1.1-1.2c-0.2-0.2-0.5-0.9-1-1.9c-0.5-1-0.8-1.6-0.9-1.8c-11.6,7.7-24,11.5-37.3,11.5
			c-14.9,0-27.6-4.8-38.3-14.4c-10.6-9.6-15.9-22.1-15.9-37.6c0-17.6,6.4-33.7,19.2-48.4C278.1,167.2,292.4,159.9,308.3,159.9
			 M294.3,210.2c5.6,0,11-1.3,16.2-4c5.2-2.6,7.7-5.9,7.7-9.8c0-2.6-0.9-5.4-2.7-8.2c-1.8-2.9-4.6-4.3-8.5-4.3
			c-4.8,0-9.9,2-15.5,5.8c-5.5,3.9-8.4,8.2-8.4,12.9C283,207.7,286.8,210.2,294.3,210.2 M308.3,147.5c-19.5,0-37.1,8.8-52.3,26.2
			c-14.8,16.9-22.2,35.9-22.2,56.5c0,19.1,6.7,34.8,20,46.8c12.8,11.6,28.6,17.5,46.6,17.5c12.1,0,23.5-2.6,34.4-8
			c1,0.7,2.1,1.2,3.2,1.7c2.1,0.7,4.3,1.1,6.8,1.1h2.9l2.6-1.3c0.4-0.2,0.9-0.5,4.3-2.4c2.2-1.3,3.9-2.1,5-2.7
			c1.5-0.8,3.4-2,5.8-3.5c2.6-1.8,4.8-3.3,6.3-4.8c1.7-1.5,3.3-3.4,4.8-5.4c2.2-3.1,3.7-6.4,4-9.7l0.2-2l-0.3-1.8
			c-3.1-16.6-11.6-28.9-25.3-36.4l-1.7-0.9l-1.9-0.4c-0.9-0.2-1.9-0.2-3.1-0.3c5-7.7,7.5-16.5,7.5-26c0-13-5-24.2-14.7-32.3
			C332,151.5,321,147.5,308.3,147.5L308.3,147.5z"/>
		<path class="st2" d="M431.8,288.4c-16.4,0-30.7-5.4-42.4-16c-11.9-10.7-17.9-24.9-17.9-42.2c0-19.1,7-36.7,20.7-52.4
			c13.9-16,29.9-24.1,47.6-24.1c11.2,0,20.9,3.4,28.9,10.2c8.3,7.1,12.5,16.4,12.5,27.7c0,13-5.3,24.2-15.9,33.3
			c-0.4,0.4-0.9,0.8-1.4,1.2c4.3-1.6,8.7-2.4,13.3-2.4c2,0,3.5,0.2,4.7,0.4l1,0.2l0.9,0.4c12,6.6,19.5,17.3,22.1,32l0.3,1l-0.1,1
			c-0.4,2.3-1.3,4.6-2.9,6.9c-1.3,1.7-2.6,3.2-4,4.5c-1.4,1.3-3.1,2.7-5.5,4.2c-2.2,1.5-3.9,2.5-5.4,3.2c-1.1,0.6-2.8,1.5-5,2.8
			c-2.4,1.3-3.8,2.1-4.2,2.3l-1.3,0.6h-1.4c-1.7,0-3.2-0.2-4.6-0.7c-1.5-0.5-2.7-1.4-4-2.6c-0.2-0.2-0.5-0.4-0.6-0.7
			C456,285.3,444.2,288.4,431.8,288.4z M415.8,237.7c0.9,1.3,2,2.6,3.2,3.7c3.9,3.5,8.5,5.2,13.7,5.2c6.1,0,11.1-2.2,15.2-6.7
			c0.2-1.1,0.5-2.2,0.9-3.4l0.5-1.7l1.3-1c-7.5,3-16.1,4.5-25.7,4.5C421.6,238.3,418.5,238.1,415.8,237.7z M420.7,203.2
			c0,0,1.1,0.9,5,0.9c4.7,0,8.9-1.1,13.3-3.3c1.7-0.8,4.3-2.5,4.3-4.3c0-1.4-0.5-3.1-1.7-5c-0.4-0.5-0.9-1.4-3.3-1.4
			c-3.5,0-7.5,1.6-12,4.7c-3.8,2.6-5.7,5.2-5.7,7.8C420.6,202.9,420.7,203.2,420.7,203.2L420.7,203.2z"/>
		<path d="M439.7,159.9c9.7,0,18,3,24.8,8.8c6.9,5.9,10.3,13.5,10.3,22.9c0,11.1-4.5,20.7-13.7,28.6c-9.2,8-21.3,11.9-36.2,11.9
			c-8.6,0-14.6-1.3-18-4c0.1,7.5,2.8,13.5,7.9,17.9c5.2,4.5,11.1,6.8,17.8,6.8c8.7,0,15.8-3.4,21.3-10.4c0-1.3,0.2-2.6,0.7-3.9
			c6.9-5.7,14.3-8.5,22.3-8.5c1.5,0,2.8,0.1,3.5,0.3c10.4,5.6,16.8,14.9,19.1,27.7c-0.1,1.2-0.7,2.6-1.8,4c-1,1.4-2,2.6-3.2,3.7
			c-1.1,1-2.7,2.1-4.7,3.5c-2,1.3-3.7,2.3-4.8,2.9c-1.2,0.7-2.9,1.6-5.2,2.8c-2.3,1.3-3.6,2-3.9,2.1c-0.9,0-1.7-0.1-2.4-0.4
			c-0.6-0.2-1.3-0.6-1.8-1.2c-0.6-0.5-0.9-0.9-1.1-1.2c-0.1-0.2-0.5-0.9-0.9-1.9c-0.5-1-0.8-1.6-1-1.8c-11.6,7.7-24,11.5-37.3,11.5
			c-14.9,0-27.7-4.8-38.3-14.4c-10.6-9.6-15.9-22.1-15.9-37.6c0-17.6,6.4-33.7,19.2-48.4C409.6,167.2,423.9,159.9,439.7,159.9
			 M425.7,210.2c5.6,0,11-1.3,16.1-4c5.1-2.6,7.7-5.9,7.7-9.8c0-2.6-0.9-5.4-2.7-8.2c-1.8-2.9-4.6-4.3-8.5-4.3c-4.8,0-10,2-15.6,5.8
			c-5.5,3.9-8.3,8.2-8.3,12.9C414.5,207.7,418.2,210.2,425.7,210.2 M439.7,147.5c-19.5,0-37.1,8.8-52.3,26.2
			c-14.8,16.9-22.2,35.9-22.2,56.5c0,19.1,6.7,34.8,19.9,46.8c12.9,11.6,28.6,17.5,46.6,17.5c12.1,0,23.5-2.6,34.3-8
			c1.1,0.7,2.1,1.2,3.3,1.7c2,0.7,4.3,1.1,6.7,1.1h2.9l2.6-1.3c0.4-0.3,0.9-0.5,4.4-2.4c2.2-1.3,3.9-2.1,5-2.7
			c1.5-0.8,3.3-2,5.8-3.5c2.7-1.8,4.7-3.3,6.3-4.8c1.7-1.5,3.3-3.4,4.8-5.4c2.3-3.1,3.6-6.4,4-9.7l0.3-1.9l-0.4-1.8
			c-3-16.6-11.5-28.9-25.3-36.4l-1.6-0.9L483,218c-0.9-0.2-2-0.2-3.2-0.3c5-7.7,7.5-16.5,7.5-26c0-13-5-24.2-14.7-32.3
			C463.5,151.5,452.4,147.5,439.7,147.5L439.7,147.5z"/>
	</g>
	<path class="st3" d="M169.4,463.7c-5.3,0-9.3-0.7-12.6-2.2c-3.9-1.7-7.3-4.9-10.1-9.4c-2.7-4.4-4.1-9-4.1-13.5c0-2,0.1-3.3,0.5-4.5
		c1.1-3.8,4-6.9,8.3-9.1c0.6-0.3,1.1-0.5,1.8-0.8c-0.1-0.2-0.4-0.8-0.4-1c-6.2,2.1-14.8,3.1-26.3,3.1c-26.2,0-46.3-7-59.8-20.7
		c-13.5-13.7-20.3-31.1-20.3-51.5c0-12.5,2.6-25.3,7.8-38c5-12.6,11.8-24.1,20.4-34.3c8.7-10.3,19.5-18.9,32.3-25.4
		c12.9-6.5,26.7-9.8,41.2-9.8c12.2,0,23.1,2.4,32.5,7.2c9.5,4.8,16.9,11.5,22.3,19.8c5.1,7.9,8.9,16.7,11.5,26.3
		c2.5,9.5,3.7,19.8,3.7,30.6c0,27.5-8.1,50.8-24,69.4c1.2,4.3,2.3,8.1,3.1,11.3c2-0.6,4.1-0.9,6.3-0.9c2.8,0,5.3,0.5,7.4,1.6
		l0.4,0.1l0.3,0.2c3.2,2.1,5.6,5.8,7.3,11.3c1.5,4.7,2.2,9.3,2.2,13.9c0,3.2-0.3,5.5-0.8,7.1l-0.5,1.4l-1.1,1
		c-4.6,4.7-11.9,8.6-22.2,11.9C186.7,462.1,177.5,463.7,169.4,463.7z M144.6,291.9c-9,0-17.2,2.9-25.1,9c-8,6.2-14.3,13.8-18.6,22.6
		c-4.3,8.8-6.4,17.5-6.4,25.9c0,9.4,2.8,17.3,8.5,24c5.5,6.4,12.5,9.5,21.6,9.5c12.6,0,24.1-5.6,35-17.1
		c11-11.6,16.5-24.3,16.5-38.8c0-10.1-2.9-18.4-8.9-25.3C161.6,295.1,154.1,291.9,144.6,291.9z"/>
	<path d="M147.9,252.8c11.3,0,21.1,2.1,29.7,6.4c8.6,4.4,15.2,10.2,19.9,17.6c4.7,7.4,8.3,15.6,10.6,24.6c2.4,9,3.6,18.6,3.6,29
		c0,27.3-8.2,49.9-24.7,67.8c2.8,9.7,4.8,17,6.1,21.9c3.2-2.5,6.6-3.8,10.3-3.8c1.9,0,3.5,0.3,4.7,1c1.9,1.3,3.5,3.9,4.7,8
		c1.4,4.1,1.9,8,1.9,12c0,2.5-0.2,4.2-0.4,5.1c-3.9,4-10.6,7.4-19.8,10.5c-9.2,3-17.6,4.6-25.1,4.6c-4.3,0-7.6-0.5-10-1.6
		c-2.8-1.2-5.3-3.6-7.4-7.1c-2.1-3.5-3.2-6.9-3.2-10.3c0-1.3,0.1-2.1,0.3-2.6c0.6-2.2,2.3-4,5.1-5.4c2.8-1.4,5.5-2.1,8.1-2.1
		c-1-1.7-2.2-4.2-3.7-7.3c-1.5-3.2-2.5-5.2-2.9-6.1c-4.9,3.5-14.7,5.2-29.2,5.2c-24.5,0-43-6.3-55.4-18.9
		c-12.3-12.6-18.6-28.3-18.6-47.2c0-11.8,2.4-23.7,7.2-35.7c4.8-12,11.3-22.9,19.4-32.7c8.1-9.8,18.2-17.7,30.4-23.8
		C121.6,255.9,134.4,252.8,147.9,252.8 M124.6,389.1c14.3,0,27.5-6.3,39.5-19c12.1-12.7,18.2-27.1,18.2-43.1
		c0-11.5-3.5-21.4-10.4-29.3c-6.9-8-16-12-27.4-12c-10.3,0-19.9,3.4-28.8,10.2c-8.9,6.9-15.7,15.2-20.4,24.9
		c-4.8,9.7-7.1,19.2-7.1,28.6c0,10.9,3.4,20.3,10,28C105,385.2,113.7,389.1,124.6,389.1 M147.9,240.4c-15.4,0-30.2,3.5-44,10.5
		c-13.5,6.9-25.1,15.9-34.2,26.9c-9,10.7-16.2,22.8-21.4,35.9c-5.3,13.5-8.1,27-8.1,40.3c0,22.2,7.5,41,22,55.8
		c14.7,15,36.3,22.6,64.2,22.6c3.9,0,7.5-0.2,10.8-0.4c0,0,0,0,0,0.1c-0.6,1.7-0.8,3.6-0.8,6.2c0,5.7,1.7,11.4,5,16.8
		c3.5,5.6,7.8,9.6,12.8,11.9c4,1.8,9,2.7,15.1,2.7c8.7,0,18.5-1.7,29-5.2c11.2-3.7,19.2-8.1,24.6-13.5l2.1-2l0.9-2.8
		c0.8-2.3,1.1-5,1.1-9c0-5.2-0.8-10.5-2.5-15.7c-2.1-7-5.3-11.8-9.8-14.7l-0.6-0.4l-0.7-0.4c-3-1.4-6.4-2.2-10.2-2.2
		c-0.7,0-1.2,0-1.9,0c-0.2-0.9-0.5-1.8-0.7-2.8c15.5-19.3,23.4-43.1,23.4-70.8c0-11.4-1.3-22.2-3.9-32.2
		c-2.7-10.2-6.9-19.7-12.2-28.2c-6-9.2-14.3-16.6-24.8-21.9C173,243,161.1,240.4,147.9,240.4L147.9,240.4z M124.6,376.7
		c-7.3,0-12.6-2.3-16.9-7.3c-4.7-5.5-7.1-12-7.1-19.9c0-7.4,2-15.2,5.9-23.2c3.9-8.1,9.4-14.8,16.8-20.5c6.8-5.2,13.7-7.7,21.3-7.7
		c7.8,0,13.5,2.5,17.9,7.7c5,5.8,7.4,12.7,7.4,21.2c0,12.8-4.8,24.1-14.7,34.5C145.4,371.7,135.5,376.7,124.6,376.7L124.6,376.7z"/>
	<path class="st4" d="M284.4,426.4c-21.9,0-48-11-48-63.4c0-5.3,0.2-10.6,0.7-15.7c-1.8-0.2-3.9-0.5-6.2-0.9l-2.3-0.4l-1.5-1.8
		c-2-2.5-3.3-6.6-3.3-19.4c0-16,1.7-20.8,3.2-23.5l1.4-2.2l2.4-0.7c12-2.9,22.7-4.3,31.6-4.3c6.8,0,14.7,1.3,23.4,4l1.4,0.5l1,1
		c1.7,1.6,3,4,4.4,11.7c1,5.3,1.5,9.8,1.5,13.7c0,6.4-1.6,12.2-4.9,17l-0.6,1l-1,0.6c-2.6,1.8-5.8,2.7-9.6,2.8
		c0,2.8-0.1,4.6-0.1,5.4c0,8.6,2.3,16,6.9,22.4c4.2,5.9,9.1,8.6,15.2,8.6c5.4,0,10.3-2.1,15-6.8c4.5-4.5,6.9-12.1,6.9-22.6
		c0-2.6-0.1-5.6-0.2-9.2c-0.6,0-1.1,0-1.6,0c-2.5,0-5.5-0.2-7.8-1.6c-6-2-6-11.2-6-15.3c0-0.8,0-2.6,2.4-20.4l0.5-3.3l3.1-1.4
		c11.9-5.5,27.5-8.4,45.9-8.4c16,0,25.8,2.8,31,8.9l0.2,0.2c2.3,3,3.5,7.4,3.5,13.5c0,12.4-3.2,20.2-9.7,23.8l-0.7,0.4l-0.8,0.2
		c-6,1.5-11.1,2.3-15.3,2.3c0,4,0.2,9,0.3,14.9c0.2,6.4,0.4,11.8,0.5,16.2c0.4,0,0.8-0.1,1.3-0.1c6-0.5,7.8-0.6,8.6-0.6
		c1.2,0,2.6,0.2,4.5,0.7c1,0.3,1.5,0.3,1.5,0.3h2.6l1.7,1.9c2.4,2.5,2.7,6.2,2.7,9.5c0,4.7-0.7,10.4-2.1,17.2
		c-2,9.7-3.5,12.5-4.8,14.3l-0.7,0.9l-1,0.6c-5.9,3.4-15.5,5.1-30.2,5.1c-12.2,0-16.6-1.2-18.9-2.1c-2.8-1.1-7.3-4-8-11.3
		C312,421.1,298.5,426.4,284.4,426.4z"/>
	<path d="M358.4,300c13.7,0,22.5,2.2,26.3,6.7c1.4,1.9,2.2,5.1,2.2,9.7c0,9.9-2.2,16-6.4,18.4c-5.7,1.4-10.5,2.2-14.4,2.2
		c-2.3,0-4.1-0.2-5.8-0.5c0,4.5,0.2,11.8,0.4,21.8c0.4,10,0.5,17.5,0.5,22.6c0.7,0,3.3-0.1,7.9-0.6c4.7-0.3,7.4-0.6,8.1-0.6
		c0.7,0,1.7,0.2,3,0.5c1.2,0.4,2.2,0.6,2.8,0.6c0.6,0.6,1,2.4,1,5.1c0,4.3-0.6,9.6-1.9,16c-1.3,6.4-2.5,10.3-3.6,11.7
		c-4.7,2.8-13.6,4.2-26.9,4.2c-8.3,0-13.8-0.5-16.6-1.6c-2.7-1.1-4.2-3.5-4.2-7.3c0-4.7,0.4-9.4,1.2-14.1
		c-14.6,16.9-30.5,25.4-47.5,25.4c-28,0-41.8-19-41.8-57.2c0-7.4,0.5-14.7,1.4-21.8c-0.2,0.1-0.8,0.2-2,0.2c-2.2,0-5.5-0.4-10-1.1
		c-1.3-1.6-1.9-6.8-1.9-15.5c0-10.9,0.8-17.7,2.3-20.2c11.6-2.8,21.6-4.2,30.1-4.2c6.2,0,13.4,1.3,21.5,3.8c0.9,0.8,1.8,3.5,2.7,8.4
		c0.9,4.8,1.4,9,1.4,12.6c0,5.2-1.3,9.8-3.8,13.5c-1.6,1.1-3.7,1.7-6.4,1.7c-1.9,0-3.9-0.4-5.8-1.2c0,0.5,0,2.5-0.1,6
		c-0.1,3.6-0.1,5.8-0.1,6.7c0,9.9,2.7,18.6,8.1,26.1c5.4,7.5,12.1,11.2,20.2,11.2c7,0,13.5-2.8,19.4-8.6c5.8-5.7,8.8-14.7,8.8-27
		c0-4.4-0.2-10-0.7-17c-1.9,1.1-4.4,1.7-7.3,1.7c-2.8,0-4.6-0.4-5.2-1.2c-1.6,0-2.4-3.2-2.4-9.5c0-1.4,0.8-7.9,2.4-19.6
		C326.3,302.6,340.8,300,358.4,300 M358.4,287.6c-19.4,0-35.7,3-48.5,8.9l-6.1,2.9l-0.9,6.7c-1.7,12.6-2.2,17.4-2.4,19.4
		c0-0.2,0-0.4,0-0.6c0-4.3-0.6-9.2-1.7-14.9c-1.3-7-2.7-11.7-6.2-15l-2.1-2.1l-2.9-0.9c-9.4-2.9-17.6-4.3-25.2-4.3
		c-9.5,0-20.6,1.6-33.1,4.6l-5,1.3l-2.6,4.3c-2.5,4.1-4.2,10.2-4.2,26.7c0,12.9,1.2,18.9,4.6,23.2l2.9,3.7l4.6,0.8
		c0.3,0,0.4,0.1,0.5,0.1c-0.1,3.5-0.2,7-0.2,10.4c0,60.5,33.9,69.6,54.2,69.6c13,0,25.5-4,37.2-11.9c2.1,3.1,5.1,5.6,8.8,7
		c4.4,1.8,10.8,2.5,21.2,2.5c15.9,0,26.5-1.9,33.3-6l2-1.2l1.4-1.8c2.6-3.2,4.2-7.8,6.1-17c1.5-7.3,2.1-13.3,2.1-18.4
		c0-4.3-0.5-9.7-4.4-13.8l-3.7-3.8h-4.6c0-0.1-0.2-0.1-0.3-0.1c-2.4-0.6-4.3-0.9-6-0.9c-0.6,0-1.3,0-3.8,0.2c-0.1-3-0.1-6.2-0.3-9.8
		c-0.1-3.3-0.2-6.3-0.2-9c3.2-0.4,6.6-1.1,10.5-2.1l1.6-0.4l1.4-0.8c8.4-4.7,12.8-14.6,12.8-29.2c0-7.5-1.6-13.2-4.8-17.3l-0.1-0.3
		l-0.2-0.2C387.6,291.1,376.4,287.6,358.4,287.6L358.4,287.6z M284.4,351.8c2.5-0.6,4.8-1.6,7-3.1l1.8-1.3l1.3-1.9
		c3.6-5.2,5.6-11.3,6-18c0,4.2,0.4,7.3,1,10c1.3,5.3,4.2,8.5,7.5,10.2c2.3,1.5,4.9,2.2,7.1,2.5c0,1.1,0,2.3,0,3.2
		c0,6.1-0.9,14.1-5,18.2c-4.7,4.6-8.4,5.1-10.7,5.1c-2.9,0-6.3-0.7-10.2-6.1C286.1,365.4,284.4,359.2,284.4,351.8L284.4,351.8z"/>
	<path class="st5" d="M455.4,426.8c-16.4,0-30.7-5.3-42.4-15.9c-11.9-10.8-17.9-25-17.9-42.3c0-19,6.9-36.6,20.7-52.3
		c14-16,29.9-24.1,47.6-24.1c11.2,0,20.9,3.5,28.9,10.3c8.3,7,12.5,16.3,12.5,27.6c0,13-5.3,24.2-15.9,33.2
		c-0.4,0.5-0.9,0.8-1.5,1.2c4.3-1.6,8.7-2.3,13.2-2.3c2,0,3.5,0.1,4.7,0.4l1,0.2l0.8,0.5c12.1,6.6,19.5,17.4,22.2,32.1l0.2,0.9
		l-0.2,1c-0.3,2.2-1.3,4.6-2.9,6.8c-1.3,1.7-2.6,3.2-3.9,4.6c-1.4,1.2-3.2,2.5-5.5,4.2c-2.2,1.4-4,2.5-5.4,3.2
		c-1.1,0.6-2.8,1.6-5,2.8c-2.4,1.3-3.8,2.1-4.2,2.3l-1.3,0.7h-1.5c-1.7,0-3.2-0.3-4.6-0.8c-1.4-0.6-2.7-1.4-3.9-2.6
		c-0.2-0.2-0.5-0.5-0.7-0.6C479.5,423.7,467.7,426.8,455.4,426.8z M439.4,376.2c0.9,1.3,2,2.6,3.2,3.7c4,3.5,8.5,5.2,13.8,5.2
		c6.2,0,11.2-2.2,15.3-6.7c0.2-1.1,0.5-2.3,0.9-3.5l0.5-1.7l1.3-1.1c-7.6,3-16.2,4.5-25.7,4.5C445.2,376.7,442.1,376.5,439.4,376.2z
		 M444.3,341.6c0,0,1,0.9,4.9,0.9c4.7,0,9-1,13.3-3.2c1.6-0.8,4.4-2.5,4.4-4.3c0-1.5-0.6-3.1-1.7-5c-0.4-0.5-0.9-1.4-3.2-1.4
		c-3.6,0-7.7,1.5-12.1,4.7c-3.7,2.7-5.7,5.2-5.7,7.7C444.2,341.4,444.3,341.6,444.3,341.6L444.3,341.6z"/>
	<path d="M463.3,298.4c9.7,0,18,2.9,24.8,8.7c6.9,5.9,10.4,13.5,10.4,22.9c0,11.1-4.5,20.7-13.7,28.6c-9.2,7.9-21.2,11.9-36.2,11.9
		c-8.6,0-14.6-1.4-18.1-4c0.2,7.5,2.8,13.5,8,18c5.1,4.5,11,6.7,17.8,6.7c8.8,0,15.8-3.4,21.3-10.4c0-1.2,0.3-2.6,0.7-4
		c6.9-5.7,14.3-8.5,22.3-8.5c1.6,0,2.7,0.1,3.6,0.2c10.3,5.6,16.7,14.9,19,27.8c-0.2,1.3-0.8,2.6-1.8,4c-1,1.4-2,2.6-3.1,3.6
		c-1.1,1-2.7,2.2-4.7,3.5c-2.1,1.3-3.7,2.3-4.8,2.9c-1.2,0.6-2.9,1.6-5.2,2.9c-2.3,1.2-3.6,1.9-3.9,2.1c-0.9,0-1.7-0.1-2.4-0.4
		c-0.6-0.2-1.3-0.5-1.8-1.1c-0.5-0.6-0.9-1-1-1.2c-0.2-0.2-0.5-0.8-1-1.9c-0.5-1-0.7-1.6-0.9-1.8c-11.7,7.7-24,11.5-37.3,11.5
		c-14.9,0-27.7-4.8-38.3-14.3c-10.6-9.6-15.8-22.2-15.8-37.7c0-17.5,6.3-33.7,19.1-48.3C433.1,305.7,447.5,298.4,463.3,298.4
		 M449.3,348.7c5.6,0,11-1.3,16.1-4c5.2-2.6,7.8-6,7.8-9.8c0-2.6-0.9-5.4-2.7-8.3c-1.8-2.9-4.6-4.3-8.5-4.3
		c-4.8,0-10.1,1.9-15.6,5.9c-5.5,3.9-8.3,8.1-8.3,12.7C438.1,346.2,441.8,348.7,449.3,348.7 M463.3,286c-19.5,0-37.2,8.8-52.3,26.2
		c-14.7,16.9-22.2,35.9-22.2,56.5c0,19.1,6.7,34.8,19.9,46.8c12.9,11.7,28.6,17.6,46.6,17.6c12,0,23.5-2.7,34.3-8
		c1.1,0.6,2.2,1.2,3.3,1.6c2.1,0.8,4.3,1.2,6.7,1.2h2.9l2.6-1.3c0.3-0.2,0.7-0.4,4.3-2.4c2.2-1.2,3.9-2.1,5-2.8
		c1.5-0.8,3.4-2,5.7-3.5c2.7-1.7,4.8-3.3,6.4-4.8c1.7-1.5,3.3-3.4,4.8-5.4c2.3-3.1,3.6-6.4,4-9.7l0.3-1.9l-0.4-1.9
		c-3-16.4-11.7-29-25.3-36.4l-1.6-0.9l-1.9-0.3c-1-0.2-2-0.3-3.2-0.4c5-7.7,7.5-16.4,7.5-26c0-13-5-24.1-14.7-32.4
		C487.1,289.9,476,286,463.3,286L463.3,286z"/>
	<g>
		<path d="M233.7,444.2c-1-0.4-1.6-1.3-1.6-2.9c0-1.2,2.4-2.4,7.4-3.6c4.8-1.1,9.1-1.7,12.8-1.7c4,0,7.2,0.8,9.6,2.5
			c2.4,1.6,3.5,3.9,3.5,6.7c0,4.1-2.3,7.8-6.8,11c-4.5,3.2-10.6,5.6-18.3,7.1c-1.9,0.4-3.1,0.8-3.4,1.1c-0.3,0.2-0.5,1.9-0.6,4.9
			c-0.1,3.1-0.2,5.2-0.2,6.4c0,0.9-0.2,1.6-0.8,2.3c-0.6,0.7-1.2,1-1.9,1c-1.6,0-2.5-1.1-2.5-3.3c0-1.2,0.4-4.6,1-10.1l1.9-16.5
			c0.1-0.3,0.1-1.1,0.1-2.4C234.1,445.3,234.1,444.5,233.7,444.2z M239.5,442.6c-0.1,0.6-0.3,1.6-0.4,3c-0.2,2.5-0.6,5.4-1,8.5
			c-0.2,1.6-0.4,3.4-0.6,5.3c6.1-0.8,11.5-2.6,16.3-5.1c4.7-2.6,7-5.4,7-8.5c0-3.8-2.9-5.7-8.7-5.7
			C248.3,440.2,244.1,441,239.5,442.6z"/>
		<path d="M273.4,466.2c0.2-0.3,0.5-0.8,0.7-1.4c1.3-2.9,2.4-5.2,3.5-6.8c1-1.7,2.2-3.3,3.5-4.7c1.2-1.5,2.4-2.7,3.4-3.4
			c1-0.8,2-1.3,2.9-1.6c0.8-0.3,1.7-0.5,2.4-0.5c1.6,0,3,0.5,4,1.5c1,1,1.5,2.1,1.5,3.4c0,0.6-0.2,1.1-0.6,1.5
			c-0.3,0.5-0.9,0.7-1.7,0.7c-0.8,0-1.5-0.3-2.1-1c-0.7-0.7-1.3-1.1-2.1-1.1c-2,0-4.6,2.4-8,7c-3.4,4.7-5.4,9.8-6.2,15.5
			c-0.2,1.5-0.5,2.4-1.1,2.9c-0.4,0.5-1.2,0.7-2.2,0.7c-0.9,0-1.6-0.7-2-2.1c-0.4-1.3-0.6-3.6-0.6-6.8c0-0.9,0-2.8,0.1-5.8
			c0.2-3.5,0.4-6.3,0.7-8.4c0.1-0.4,0.1-1.2,0.4-2.5c0.1-1.5,0.3-2.4,0.5-3c0.2-0.5,0.5-1.1,1.2-1.6c0.6-0.5,1.2-0.8,1.9-0.8
			c0.7,0,1.2,0.2,1.5,0.7c0.4,0.5,0.5,0.9,0.5,1.4c0,0.7-0.1,1.7-0.5,3.1c-0.4,1.5-0.8,2.4-0.8,3c0,0.6-0.1,1.3-0.3,2
			c-0.2,0.8-0.4,2.9-0.6,6.3l0,1V466.2z"/>
		<path d="M321,467.8c0,1.9-1.7,4.2-5,6.8c-3.3,2.7-6.8,4-10.3,4c-3,0-5.3-0.9-7-2.7c-1.7-1.7-2.4-4.2-2.4-7.4
			c0-5.3,1.8-10.4,5.4-15.1c3.5-4.8,7.4-7.2,11.7-7.2c1.4,0,2.5,0.5,3.4,1.4c1,1,1.4,2,1.4,3.2c0,3-1.5,5.7-4.3,8.2
			c-2.7,2.6-6.4,5.1-11.2,7.7c-1,0.5-1.5,1.2-1.5,2c0,1.5,0.5,2.8,1.4,3.7c0.9,1,2.2,1.4,4,1.4c4,0,8-2.2,12.2-6.7
			c0.6-0.6,1.1-0.9,1.4-0.9C320.7,466.4,321,466.8,321,467.8z M301.6,463.5c7.9-4.7,11.8-8.4,11.8-11.3c0-1.1-0.5-1.7-1.5-1.7
			c-1.7,0-3.6,1.3-5.8,3.8C304,456.8,302.4,459.8,301.6,463.5z"/>
		<path d="M340.8,470.9c0-1.2-1.4-2.6-4.4-4.1c-3.8-2-6.3-3.5-7.6-4.6c-1.4-1.1-2-2.5-2-3.9c0-3.6,1.9-6.7,5.6-9.2
			c3.7-2.5,6.6-3.7,9-3.7c1.5,0,2.6,0.3,3.2,0.8c0.7,0.5,1.1,1.5,1.1,2.7c0,0.6-0.3,1-0.8,1.5c-0.5,0.4-0.9,0.6-1.1,0.6
			c-0.2,0-0.6-0.1-1.2-0.4c-0.6-0.3-1-0.4-1.2-0.4c-0.9,0-2.7,0.7-5.7,2c-2.8,1.3-4.2,2.9-4.2,4.6c0,1,0.5,2,1.5,2.8
			c0.9,0.8,2.7,1.9,5.4,3.1c2.1,1,3.7,2.1,4.9,3.2c1.3,1.1,1.9,2.5,1.9,4c0,2.8-1.9,5.1-5.9,6.7c-3.9,1.6-7.6,2.4-11.3,2.4
			c-2.9,0-4.4-1-4.4-3c0-0.7,0.3-1.2,1-1.6c0.7-0.3,1.4-0.5,2.1-0.5c0.3,0,0.8,0.1,1.6,0.3c0.8,0.2,1.3,0.3,1.5,0.3
			c2,0,4.2-0.4,6.6-1C338.7,472.8,340.2,471.9,340.8,470.9z"/>
		<path d="M358.5,478.8c-2.7,0-4.9-0.8-6.4-2.4c-1.5-1.6-2.2-3.8-2.2-6.7c0-4.9,1.9-10,5.7-15.3c3.9-5.4,7.4-8,10.7-8
			c1.5,0,2.8,0.8,3.9,2.4c1.1,1.6,1.6,3.4,1.6,5.2c0,1.1-0.3,2-0.7,2.8c-0.5,0.8-0.9,1.2-1.4,1.2c-1.1,0-1.9-1.1-2.3-3.3
			c-0.6-2.3-1.2-3.5-2.2-3.5c-1.9,0-4.2,2.3-6.9,6.9c-2.6,4.6-4,8.5-4,11.6c0,3.2,1.8,4.7,5.4,4.7c2.7,0,6-1.3,9.6-3.8
			c1.4-0.9,2.3-1.3,3-1.3c0.6,0,0.9,0.3,0.9,1.1c0,1.4-1.7,3.2-5,5.3C365,477.8,361.8,478.8,358.5,478.8z"/>
		<path d="M384.4,468.9c6.9-12.7,12.6-19.1,17.1-19.1c1.2,0,2.1,0.6,2.9,2c0.7,1.4,1.3,4.4,1.8,9c0.5,4.9,1.5,8.5,3.1,10.8
			c0.8,1.1,1.2,1.9,1.2,2.5c0,0.5-0.3,0.9-0.8,1.4c-0.6,0.4-1.2,0.6-1.9,0.6c-1.4,0-2.6-0.8-3.8-2.5c-1.1-1.5-1.8-4.5-2.1-8.5
			c-0.3-3.9-0.6-6.4-1-7.6c-0.4-1.2-1-1.8-1.7-1.8c-2,0-5.9,5.1-11.8,15.3c-1.8,3-3.1,5-3.9,6c-0.9,1-1.6,1.4-2.3,1.4
			c-0.9,0-1.5-0.2-2-0.7c-0.5-0.5-0.8-1.1-0.8-1.8c0-0.5,0.2-1.5,0.5-3c2.3-11.8,4-23.4,5.4-35c0.3-2.7,0.7-4.5,1.4-5.4
			c0.7-0.9,1.2-1.3,1.6-1.3c0.8,0,1.6,0.4,2.2,1c0.6,0.6,0.9,1.5,0.9,2.6c0,3.5-0.8,8.2-2.5,14.1c-0.8,3-1.7,6.7-2.6,11.2
			c-0.8,4.5-1.3,7.3-1.3,8.4C384,468.8,384.1,468.9,384.4,468.9L384.4,468.9z"/>
		<path d="M423.7,478.6c-2.6,0-4.7-1-6.4-2.9c-1.6-1.9-2.4-4.3-2.4-7.1c0-4.8,1.6-9.5,4.8-14.2c3.2-4.6,7-6.9,11.6-6.9
			c3,0,5.4,1.2,7.3,3.4c1.8,2.3,2.7,5,2.7,8.2c0,4.8-1.9,9.3-5.7,13.4C431.7,476.6,427.8,478.6,423.7,478.6z M419.8,467.9
			c0,1.9,0.4,3.4,1.2,4.6c0.8,1.2,1.7,1.8,3.1,1.8c2.7,0,5.5-1.5,8.2-4.6c2.8-3.1,4.2-6.4,4.2-10.2c0-2.3-0.6-4.1-1.6-5.6
			c-1-1.4-2.5-2.1-4.3-2.1c-3.1,0-5.6,1.8-7.7,5.5C420.9,461.1,419.8,464.6,419.8,467.9z"/>
		<path d="M455.8,478.6c-2.5,0-4.6-1-6.2-2.9c-1.7-1.9-2.5-4.3-2.5-7.1c0-4.8,1.6-9.5,4.9-14.2c3.2-4.6,7-6.9,11.6-6.9
			c2.9,0,5.3,1.2,7.2,3.4c1.8,2.3,2.7,5,2.7,8.2c0,4.8-1.9,9.3-5.7,13.4C464,476.6,460,478.6,455.8,478.6z M452,467.9
			c0,1.9,0.4,3.4,1.2,4.6c0.8,1.2,1.8,1.8,3.1,1.8c2.8,0,5.5-1.5,8.3-4.6c2.8-3.1,4.2-6.4,4.2-10.2c0-2.3-0.5-4.1-1.6-5.6
			c-1.1-1.4-2.5-2.1-4.3-2.1c-3,0-5.6,1.8-7.7,5.5C453.1,461.1,452,464.6,452,467.9z"/>
		<path d="M489.7,430.1c1.3,0,2.1,0.9,2.1,2.6c0,1.6-0.8,5.2-2.5,10.9c-1,3.6-1.9,7.6-2.4,11.9c-0.6,4.3-0.9,7.8-0.9,10.2
			c0,3.1,0.3,6.1,0.6,9.1c0.1,0.6,0.2,1,0.2,1.3c0,0.9-0.4,1.7-1,2.4c-0.6,0.7-1.3,1-2,1c-1,0-1.7-0.6-2.1-1.8
			c-0.4-1.2-0.5-3.2-0.5-6c0-6.2,0.7-13.9,2.2-23.1c1.5-9.1,2.8-14.5,3.6-16.1C488,430.9,488.8,430.1,489.7,430.1z"/>
	</g>
	<g>
		<path class="st6" d="M353.3,150.3c-1.4,1.6-2.1,3.6-2.2,5.8c-0.1,5.1,3.9,9.3,8.9,9.4c3.9,0.1,7.3-2.3,8.7-5.8
			c1.5,2.6,4.4,4.3,7.6,4.5c5.1,0.1,9.3-3.9,9.4-8.9c0-2.5-0.9-4.8-2.4-6.4c3.7-1.1,6.5-4.5,6.6-8.6c0.1-5-3.9-9.2-8.9-9.4
			c-1.4,0-2.8,0.3-4.1,0.9c-0.2-4.9-4.1-8.9-8.9-9c-5.1-0.1-9.3,3.9-9.5,9c0,0.3,0.1,0.7,0.1,1c-0.7-0.2-1.4-0.3-2.2-0.3
			c-5-0.2-9.3,3.9-9.4,8.9C346.9,145.6,349.6,149.2,353.3,150.3"/>
		<path class="st7" d="M368,140.2c2.4,0,4.3,2,4.3,4.4c-0.1,2.4-2,4.3-4.4,4.2c-2.4,0-4.3-2-4.2-4.4
			C363.7,142.1,365.7,140.1,368,140.2 M355.7,141.7c0,0.2,0.4,0.3,0.6,0.2h0.1l6.8,1.4c-0.1,0.4-0.2,0.8-0.2,1.1c0,0.1,0,0.2,0,0.3
			l-3.9,0.6c-0.2-0.1-0.3-0.1-0.4-0.1c-0.3,0.1-0.4,0.4-0.3,0.6c0.1,0.2,0.3,0.3,0.5,0.3c0.1,0,0.2-0.1,0.2-0.1l3.9-0.6
			c0.1,0.6,0.3,1.2,0.7,1.8l-3.2,2.4c0,0,0,0,0,0c-0.3,0.1-0.5,0.3-0.4,0.6c0.1,0.2,0.4,0.4,0.6,0.3c0.2-0.1,0.3-0.2,0.3-0.4l3-2.3
			c0.1,0.2,0.3,0.4,0.5,0.5l-3.7,6c-0.2,0.1-0.2,0.2-0.2,0.4c0,0.3,0.2,0.4,0.4,0.4c0.3,0,0.5-0.1,0.5-0.4l-0.1-0.1l3.5-5.9
			c0.5,0.3,0.9,0.5,1.3,0.6l-0.7,3.9c-0.1,0-0.1,0.2-0.1,0.3c0,0.2,0.1,0.5,0.4,0.5c0.2,0,0.4-0.2,0.5-0.4c0-0.1-0.1-0.2-0.1-0.2
			l0.8-3.8c0.2,0,0.4,0,0.7,0c0.4,0,0.8,0,1.1-0.1l1.3,3.7v0.1c0,0.2,0.1,0.5,0.4,0.5c0.2,0,0.4-0.2,0.4-0.5c0-0.2,0-0.3-0.2-0.4
			l-1.2-3.6c0.3-0.1,0.6-0.2,0.9-0.4l4.5,5.1c0,0.2,0.1,0.3,0.2,0.3h0.1l0,0h0.1c0.3,0,0.5-0.2,0.5-0.4c0-0.3-0.1-0.5-0.4-0.5l0,0
			l-4.4-5c0.4-0.2,0.8-0.6,1-1l3.5,1.9c0,0.1,0.1,0.2,0.2,0.2c0.2,0.1,0.5,0,0.6-0.3c0.1-0.3,0-0.5-0.2-0.6c-0.1,0-0.2,0-0.3,0
			l-3.4-1.9c0.2-0.6,0.4-1.2,0.5-1.8l3.9-0.1c0,0,0.1,0,0.1,0.1c0.3,0,0.5-0.1,0.6-0.3c0-0.2-0.1-0.5-0.2-0.6c-0.2,0-0.4,0-0.5,0.1
			H373c0-0.1,0-0.2,0-0.4l6.6-2.3c0.2,0.1,0.3,0,0.5-0.1c0.1-0.2,0.1-0.5-0.1-0.6c-0.1-0.2-0.4-0.2-0.6,0.1h0l-6.6,2.3
			c-0.1-0.5-0.3-0.9-0.6-1.4l3.1-2.5c0.1,0,0.3-0.1,0.4-0.2c0.1-0.2,0.1-0.5,0-0.7c-0.2-0.2-0.5-0.1-0.6,0c-0.1,0.1-0.1,0.1-0.1,0.2
			l-3,2.5c-0.4-0.5-1-0.9-1.5-1.2l1.4-3.7c0.1,0,0.1,0,0.1,0c0.2-0.2,0.1-0.5,0-0.6c-0.2-0.2-0.6-0.2-0.8,0.1c0,0.1,0,0.3,0,0.4
			l-1.4,3.5c-0.4-0.2-0.8-0.2-1.3-0.3l-0.7-6.9c0.1-0.2,0.1-0.4,0-0.5c-0.2-0.2-0.5-0.2-0.6-0.1c-0.2,0.2-0.3,0.4-0.2,0.7l0.1,0.1
			l0.7,6.8c-0.5,0-1,0.1-1.4,0.3l-1.8-3.6c0-0.1,0-0.2-0.1-0.3c-0.2-0.2-0.5-0.2-0.6-0.1c-0.2,0.1-0.3,0.4-0.1,0.6
			c0,0.1,0.1,0.2,0.1,0.2l1.7,3.5c-0.5,0.3-1,0.7-1.5,1.1l-3.2-2.2V139c-0.2-0.2-0.5-0.2-0.6-0.1c-0.2,0.2-0.3,0.5-0.2,0.6
			c0.2,0.1,0.3,0.2,0.5,0.1l3.2,2.2c-0.2,0.2-0.3,0.5-0.4,0.8l-6.9-1.4c-0.1-0.2-0.3-0.2-0.4-0.2
			C355.7,141.1,355.6,141.4,355.7,141.7"/>
	</g>
	<g>
		<path class="st8" d="M369.7,97.4c2.1,2.4,5.1,4,8.5,4.5c7.8,1.1,15.1-4.4,16.2-12.2c0.9-6.1-2.3-11.8-7.3-14.5
			c4.3-2,7.5-6,8.2-11.1c1-7.8-4.5-15-12.2-16.1c-3.8-0.5-7.4,0.4-10.3,2.5c-1.1-6-5.8-10.9-12.2-11.8c-7.8-1.1-15,4.4-16.1,12.2
			c-0.3,2.3-0.1,4.5,0.6,6.5c-7.5-0.6-14.3,4.7-15.4,12.3c-1.1,7.8,4.4,15.1,12.2,16.2c0.5,0.1,1,0.1,1.5,0.1
			c-0.5,1.1-0.7,2.2-0.8,3.4c-1.1,7.8,4.3,15.1,12.2,16.2C361.1,106.4,367,102.9,369.7,97.4"/>
		<path class="st7" d="M356.5,72.6c0.5-3.6,3.9-6.2,7.6-5.7c3.6,0.5,6.2,4,5.7,7.6c-0.5,3.7-3.9,6.3-7.5,5.7
			C358.5,79.8,356,76.3,356.5,72.6 M356.5,92.1c0.4-0.1,0.6-0.5,0.5-0.8c0-0.1,0-0.1,0-0.1l3.3-10.3c0.6,0.2,1.1,0.4,1.7,0.4
			c0.2,0,0.3,0,0.5,0l0.2,6.3c-0.1,0.1-0.2,0.3-0.1,0.5c0.1,0.4,0.5,0.7,0.9,0.6c0.4-0.1,0.6-0.5,0.6-0.8c-0.1-0.2-0.1-0.2-0.2-0.3
			l-0.2-6.2c1-0.1,2-0.3,2.8-0.7l3.2,5.2c0,0.1,0,0.1,0,0.1c0.1,0.4,0.4,0.6,0.8,0.5c0.4,0,0.6-0.4,0.6-0.8
			c-0.1-0.3-0.3-0.5-0.5-0.6l-3.1-5c0.3-0.2,0.5-0.4,0.9-0.6l8.6,6.7c0.1,0.3,0.3,0.5,0.5,0.5c0.4,0,0.8-0.2,0.9-0.6
			c0-0.4-0.3-0.7-0.7-0.8l-0.1,0l-8.6-6.6c0.6-0.6,0.9-1.2,1.3-1.9l5.9,1.9c0.1,0.1,0.3,0.3,0.5,0.3c0.4,0,0.7-0.2,0.7-0.6
			c0.1-0.4-0.2-0.8-0.5-0.8c-0.2,0-0.3,0-0.3,0l-5.9-1.8c0.1-0.3,0.2-0.6,0.3-1c0.1-0.6,0.1-1.3,0.1-1.8l6-1.3c0.1,0,0.1,0,0.1,0
			c0.3,0.1,0.7-0.1,0.8-0.6c0-0.4-0.2-0.7-0.6-0.8c-0.2,0-0.5,0.1-0.7,0.3l-5.9,1.3c-0.1-0.5-0.2-0.9-0.4-1.3l8.7-6.1
			c0.3,0,0.4-0.2,0.6-0.4h0v0c0-0.1,0.1-0.1,0.1-0.2c0-0.3-0.3-0.7-0.7-0.7c-0.3-0.1-0.7,0.2-0.8,0.5v0.1l-8.5,5.8
			c-0.4-0.6-0.9-1.2-1.5-1.7l3.5-5.1c0.3-0.1,0.4-0.1,0.5-0.4c0.2-0.4,0-0.8-0.3-1c-0.3-0.1-0.7,0-0.9,0.3c-0.1,0.1-0.1,0.2-0.1,0.4
			l-3.5,5c-0.8-0.6-1.7-0.9-2.6-1.1l0.5-6.1c0,0,0.1,0,0.1-0.1c0.2-0.3,0.1-0.8-0.3-0.9c-0.3-0.1-0.8,0-1,0.4
			c-0.1,0.2-0.1,0.6,0.1,0.8l-0.6,5.9c-0.2,0-0.5,0-0.7,0l-2.4-10.7c0.2-0.3,0.1-0.6,0-0.8c-0.3-0.3-0.7-0.3-1.1-0.1
			c-0.3,0.3-0.3,0.8,0,1c0,0,0,0.1,0.1,0.1l2.3,10.5c-0.7,0.2-1.5,0.4-2.2,0.8l-3.3-5.3c0-0.2-0.1-0.4-0.2-0.5c-0.2-0.3-0.6-0.3-1,0
			c-0.3,0.3-0.3,0.7,0,1c0,0.1,0.2,0.1,0.3,0.1l3.3,5.3c-0.8,0.6-1.5,1.2-2.1,2l-5.4-2.9c0,0,0-0.1,0-0.1c-0.3-0.4-0.8-0.4-1-0.1
			c-0.2,0.3-0.2,0.7,0,1c0.2,0.1,0.5,0.2,0.8,0.1l5.1,2.8c-0.3,0.7-0.5,1.3-0.6,1.9l-11-0.1c-0.2-0.1-0.5-0.1-0.8,0
			c-0.3,0.1-0.5,0.6-0.3,0.9c0.2,0.3,0.6,0.5,1,0.3c0,0,0-0.1,0.1-0.1l10.8,0.1c-0.1,0.8,0,1.5,0.2,2.2l-5.8,2.1
			c-0.3-0.1-0.5-0.1-0.6,0c-0.3,0.2-0.5,0.6-0.2,1c0.2,0.4,0.5,0.4,1,0.3c0.1-0.1,0.1-0.2,0.2-0.2l5.7-2c0.4,0.8,0.9,1.7,1.6,2.4
			l-4.1,4.6c0,0.1-0.1,0.1-0.1,0.1c-0.4,0.2-0.5,0.6-0.3,1c0.2,0.3,0.7,0.5,0.9,0.2c0.3-0.1,0.4-0.4,0.3-0.7l4-4.5
			c0.3,0.3,0.7,0.5,1.1,0.8L356,90.8c-0.2,0.2-0.3,0.5-0.3,0.7C355.7,91.9,356.1,92.2,356.5,92.1"/>
	</g>
	<g>
		<path class="st1" d="M301.2,128.6c3.1,2.4,7,3.9,11.4,3.8c9.8-0.2,17.6-8.4,17.4-18.1c-0.2-7.7-5.1-14-11.9-16.5
			c4.9-3.3,8-8.8,7.9-15.1c-0.3-9.8-8.3-17.6-18.1-17.4c-4.7,0.1-9,2-12.1,5.2c-2.5-7.1-9.2-12.2-17.3-12
			c-9.7,0.2-17.5,8.4-17.3,18.1c0.1,2.9,0.8,5.5,2,7.9c-9.3,0.7-16.7,8.6-16.4,18.1c0.2,9.8,8.3,17.6,18.1,17.4
			c0.6,0,1.3-0.1,1.8-0.1c-0.3,1.4-0.4,2.7-0.3,4.2c0.1,9.8,8.3,17.6,18.1,17.4C292.5,141.5,299.1,136,301.2,128.6"/>
		<path class="st7" d="M280.2,100.9c-0.1-4.7,3.6-8.5,8.2-8.6c4.7,0,8.5,3.6,8.6,8.2c0.1,4.7-3.6,8.5-8.2,8.6
			C284.1,109.2,280.2,105.5,280.2,100.9 M284.1,124.8c0.5-0.2,0.7-0.7,0.6-1.1c0,0-0.1-0.1-0.1-0.1l2-13.2c0.8,0.1,1.5,0.2,2.1,0.2
			c0.3,0,0.5,0,0.7-0.1l1.5,7.6c-0.1,0.2-0.2,0.5,0,0.7c0.1,0.4,0.7,0.7,1.1,0.5c0.5-0.2,0.7-0.7,0.5-1.1c-0.1-0.1-0.2-0.3-0.3-0.4
			l-1.5-7.4c1.2-0.3,2.3-0.8,3.3-1.5l4.9,5.8c0,0.1,0,0.1,0,0.2c0.2,0.5,0.7,0.7,1.2,0.5c0.5-0.2,0.6-0.7,0.5-1.1
			c0-0.3-0.3-0.5-0.8-0.5l-4.8-5.7c0.3-0.3,0.7-0.6,1-1l11.8,6.5c0.2,0.4,0.4,0.6,0.8,0.6c0.5,0,0.9-0.4,0.9-0.9
			c0-0.5-0.5-0.9-0.9-0.9c0,0,0,0-0.1,0l-11.8-6.4c0.5-0.8,0.9-1.6,1.1-2.6l7.6,1.2c0.2,0.2,0.4,0.3,0.7,0.3c0.6,0,0.9-0.4,0.9-0.9
			c0-0.5-0.4-0.9-0.9-0.9c-0.1,0-0.3,0-0.3,0.1l-7.6-1.1c0.1-0.5,0.1-0.9,0.1-1.4c0-0.7-0.1-1.5-0.4-2.2l7.2-2.7c0.1,0,0.1,0,0.1,0
			c0.5,0,0.9-0.4,0.9-0.9c0-0.5-0.4-0.9-0.9-0.8c-0.4,0-0.7,0.2-0.8,0.5l-6.9,2.6c-0.2-0.5-0.5-1-0.9-1.4l9.6-9.2
			c0.2-0.1,0.5-0.3,0.6-0.5l0,0l0-0.1c0-0.1,0-0.2,0-0.2c0-0.5-0.5-0.9-0.9-0.9c-0.5,0-0.8,0.4-0.8,0.9l0,0l-9.2,8.9
			c-0.7-0.7-1.4-1.3-2.1-1.8l3.3-6.9c0.3-0.1,0.5-0.3,0.5-0.5c0.1-0.5-0.1-1-0.6-1.1c-0.5-0.1-0.9,0.1-1.1,0.5
			c-0.1,0.1-0.1,0.3,0,0.4l-3.4,6.8c-1.2-0.5-2.3-0.8-3.5-0.9l-0.5-7.6c0.1,0,0.1,0,0.1-0.1c0-0.5-0.2-0.9-0.6-1.1
			c-0.5-0.1-0.9,0.1-1.1,0.6c-0.1,0.3,0.1,0.6,0.4,0.9l0.2,7.3c-0.2,0-0.5,0.1-0.9,0.1l-4.9-12.6c0.1-0.3,0-0.7-0.3-1
			c-0.4-0.2-0.8-0.2-1.3,0.2c-0.2,0.4-0.1,1,0.2,1.2c0,0.1,0.1,0.1,0.1,0.1l4.9,12.5c-0.9,0.3-1.8,0.7-2.5,1.3l-5.1-5.8
			c0-0.2-0.1-0.4-0.3-0.6c-0.4-0.3-0.9-0.2-1.2,0.2c-0.3,0.4-0.2,0.9,0.1,1.2c0.1,0.1,0.3,0.2,0.4,0.2l5.1,5.7
			c-0.9,0.9-1.6,1.9-2.1,2.9l-7.3-2.5c0,0,0-0.1,0-0.1c-0.5-0.3-1-0.2-1.2,0.1c-0.3,0.4-0.3,1,0.1,1.3c0.2,0.2,0.6,0.3,0.9,0.1
			l6.9,2.4c-0.2,0.8-0.3,1.6-0.3,2.4l-13.5,2.1c-0.3-0.2-0.7-0.2-0.9,0c-0.4,0.3-0.5,0.9-0.2,1.3c0.3,0.4,0.8,0.4,1.2,0.1v-0.1
			l13.4-2c0,0.9,0.2,1.8,0.5,2.7l-6.6,3.7c-0.3-0.1-0.6,0-0.7,0.2c-0.3,0.3-0.5,0.8-0.2,1.2c0.3,0.3,0.9,0.5,1.3,0.1
			c0.1-0.1,0.1-0.2,0.3-0.3l6.7-3.6c0.6,1.1,1.5,2,2.4,2.7l-4.1,6.5c-0.1,0-0.1,0-0.1,0c-0.3,0.3-0.4,0.8-0.1,1.2
			c0.3,0.4,0.9,0.5,1.2,0.1c0.4-0.1,0.5-0.5,0.4-0.8l4-6.3c0.4,0.3,0.9,0.5,1.4,0.7l-2.1,13.5c-0.3,0.2-0.3,0.6-0.2,0.9
			C283.1,124.7,283.6,124.9,284.1,124.8"/>
	</g>
</g>
</svg>
